<svg width="32" height="32" viewBox="0 0 32 32" fill="none" xmlns="http://www.w3.org/2000/svg">
<g id="icon/controls/eye">
<path id="eye" fill-rule="evenodd" clip-rule="evenodd" d="M15.9999 18.0002C14.8972 18.0002 13.9999 17.1028 13.9999 16.0002C13.9999 14.8975 14.8972 14.0002 15.9999 14.0002C17.1026 14.0002 17.9999 14.8975 17.9999 16.0002C17.9999 17.1028 17.1026 18.0002 15.9999 18.0002ZM15.9999 11.3335C13.4266 11.3335 11.3332 13.4268 11.3332 16.0002C11.3332 18.5735 13.4266 20.6668 15.9999 20.6668C18.5732 20.6668 20.6666 18.5735 20.6666 16.0002C20.6666 13.4268 18.5732 11.3335 15.9999 11.3335ZM16.2928 22.6637C10.5515 22.797 6.80617 17.8863 5.5635 15.9943C6.9315 13.8543 10.3768 9.47299 15.7075 9.33699C21.4262 9.19165 25.1928 14.1143 26.4355 16.0063C25.0688 18.1463 21.6222 22.5277 16.2928 22.6637ZM29.1568 15.337C28.3062 13.8543 23.6075 6.42232 15.6395 6.67166C8.26884 6.85832 3.98217 13.3517 2.8435 15.337C2.6075 15.7477 2.6075 16.253 2.8435 16.6637C3.68217 18.1263 8.2155 25.333 16.0328 25.333C16.1422 25.333 16.2515 25.3317 16.3608 25.329C23.7302 25.141 28.0182 18.649 29.1568 16.6637C29.3915 16.253 29.3915 15.7477 29.1568 15.337Z" fill="#007DFA"/>
</g>
</svg>
