<svg width="24" height="24" viewBox="0 0 24 24" fill="none" xmlns="http://www.w3.org/2000/svg">
<path fill-rule="evenodd" clip-rule="evenodd" d="M9.08334 2C5.17155 2 2 5.17155 2 9.08334C2 12.9951 5.17155 16.1667 9.08334 16.1667C10.8892 16.1667 12.5373 15.4908 13.7885 14.3781L21.2887 21.8784C21.4514 22.0411 21.7153 22.0411 21.878 21.8784C22.0407 21.7157 22.0407 21.4518 21.878 21.2891L14.3777 13.7889C15.4906 12.5377 16.1667 10.8894 16.1667 9.08334C16.1667 5.17155 12.9951 2 9.08334 2ZM2.83333 9.08334C2.83333 5.63179 5.63179 2.83333 9.08334 2.83333C12.5349 2.83333 15.3333 5.63179 15.3333 9.08334C15.3333 12.5349 12.5349 15.3333 9.08334 15.3333C5.63179 15.3333 2.83333 12.5349 2.83333 9.08334Z" fill="#FF5533"/>
</svg>
